<svg id="visual" viewBox="0 0 960 540" width="960" height="540" xmlns="http://www.w3.org/2000/svg" xmlns:xlink="http://www.w3.org/1999/xlink" version="1.1"><path d="M0 60L16 60C32 60 64 60 96 60C128 60 160 60 192 60C224 60 256 60 288 60C320 60 352 60 384 59.2C416 58.3 448 56.7 480 55.8C512 55 544 55 576 55C608 55 640 55 672 55.8C704 56.7 736 58.3 768 57.5C800 56.7 832 53.3 864 55.2C896 57 928 64 944 67.5L960 71L960 0L944 0C928 0 896 0 864 0C832 0 800 0 768 0C736 0 704 0 672 0C640 0 608 0 576 0C544 0 512 0 480 0C448 0 416 0 384 0C352 0 320 0 288 0C256 0 224 0 192 0C160 0 128 0 96 0C64 0 32 0 16 0L0 0Z" fill="#2176ae"></path><path d="M0 141L16 141C32 141 64 141 96 138.3C128 135.7 160 130.3 192 127.7C224 125 256 125 288 126.8C320 128.7 352 132.3 384 131.5C416 130.7 448 125.3 480 124.5C512 123.7 544 127.3 576 128.2C608 129 640 127 672 128.7C704 130.3 736 135.7 768 138.3C800 141 832 141 864 143.8C896 146.7 928 152.3 944 155.2L960 158L960 69L944 65.5C928 62 896 55 864 53.2C832 51.3 800 54.7 768 55.5C736 56.3 704 54.7 672 53.8C640 53 608 53 576 53C544 53 512 53 480 53.8C448 54.7 416 56.3 384 57.2C352 58 320 58 288 58C256 58 224 58 192 58C160 58 128 58 96 58C64 58 32 58 16 58L0 58Z" fill="#64a3ca"></path><path d="M0 174L16 174C32 174 64 174 96 171.3C128 168.7 160 163.3 192 160.7C224 158 256 158 288 160.7C320 163.3 352 168.7 384 167.7C416 166.7 448 159.3 480 158.3C512 157.3 544 162.7 576 164.5C608 166.3 640 164.7 672 165.7C704 166.7 736 170.3 768 174C800 177.7 832 181.3 864 184C896 186.7 928 188.3 944 189.2L960 190L960 156L944 153.2C928 150.3 896 144.7 864 141.8C832 139 800 139 768 136.3C736 133.7 704 128.3 672 126.7C640 125 608 127 576 126.2C544 125.3 512 121.7 480 122.5C448 123.3 416 128.7 384 129.5C352 130.3 320 126.7 288 124.8C256 123 224 123 192 125.7C160 128.3 128 133.7 96 136.3C64 139 32 139 16 139L0 139Z" fill="#a2d0e6"></path><path d="M0 287L16 290.7C32 294.3 64 301.7 96 299.8C128 298 160 287 192 278.8C224 270.7 256 265.3 288 266.3C320 267.3 352 274.7 384 281C416 287.3 448 292.7 480 290.8C512 289 544 280 576 279.2C608 278.3 640 285.7 672 288.3C704 291 736 289 768 289C800 289 832 291 864 293.7C896 296.3 928 299.7 944 301.3L960 303L960 188L944 187.2C928 186.3 896 184.7 864 182C832 179.3 800 175.7 768 172C736 168.3 704 164.7 672 163.7C640 162.7 608 164.3 576 162.5C544 160.7 512 155.3 480 156.3C448 157.3 416 164.7 384 165.7C352 166.7 320 161.3 288 158.7C256 156 224 156 192 158.7C160 161.3 128 166.7 96 169.3C64 172 32 172 16 172L0 172Z" fill="#d6f4ff"></path><path d="M0 406L16 408.7C32 411.3 64 416.7 96 416.7C128 416.7 160 411.3 192 410.5C224 409.7 256 413.3 288 416C320 418.7 352 420.3 384 420.3C416 420.3 448 418.7 480 417.8C512 417 544 417 576 416C608 415 640 413 672 412C704 411 736 411 768 412.8C800 414.7 832 418.3 864 419.3C896 420.3 928 418.7 944 417.8L960 417L960 301L944 299.3C928 297.7 896 294.3 864 291.7C832 289 800 287 768 287C736 287 704 289 672 286.3C640 283.7 608 276.3 576 277.2C544 278 512 287 480 288.8C448 290.7 416 285.3 384 279C352 272.7 320 265.3 288 264.3C256 263.3 224 268.7 192 276.8C160 285 128 296 96 297.8C64 299.7 32 292.3 16 288.7L0 285Z" fill="#d6f4ff"></path><path d="M0 455L16 457.7C32 460.3 64 465.7 96 465.7C128 465.7 160 460.3 192 457.7C224 455 256 455 288 455.8C320 456.7 352 458.3 384 458.3C416 458.3 448 456.7 480 454.8C512 453 544 451 576 451.8C608 452.7 640 456.3 672 457.3C704 458.3 736 456.7 768 457.5C800 458.3 832 461.7 864 463.3C896 465 928 465 944 465L960 465L960 415L944 415.8C928 416.7 896 418.3 864 417.3C832 416.3 800 412.7 768 410.8C736 409 704 409 672 410C640 411 608 413 576 414C544 415 512 415 480 415.8C448 416.7 416 418.3 384 418.3C352 418.3 320 416.7 288 414C256 411.3 224 407.7 192 408.5C160 409.3 128 414.7 96 414.7C64 414.7 32 409.3 16 406.7L0 404Z" fill="#a2d0e6"></path><path d="M0 487L16 488.8C32 490.7 64 494.3 96 494.3C128 494.3 160 490.7 192 488C224 485.3 256 483.7 288 484.5C320 485.3 352 488.7 384 489.5C416 490.3 448 488.7 480 487.8C512 487 544 487 576 487C608 487 640 487 672 487C704 487 736 487 768 487.8C800 488.7 832 490.3 864 492.2C896 494 928 496 944 497L960 498L960 463L944 463C928 463 896 463 864 461.3C832 459.7 800 456.3 768 455.5C736 454.7 704 456.3 672 455.3C640 454.3 608 450.7 576 449.8C544 449 512 451 480 452.8C448 454.7 416 456.3 384 456.3C352 456.3 320 454.7 288 453.8C256 453 224 453 192 455.7C160 458.3 128 463.7 96 463.7C64 463.7 32 458.3 16 455.7L0 453Z" fill="#64a3ca"></path><path d="M0 541L16 541C32 541 64 541 96 541C128 541 160 541 192 541C224 541 256 541 288 541C320 541 352 541 384 541C416 541 448 541 480 541C512 541 544 541 576 541C608 541 640 541 672 541C704 541 736 541 768 541C800 541 832 541 864 541C896 541 928 541 944 541L960 541L960 496L944 495C928 494 896 492 864 490.2C832 488.3 800 486.7 768 485.8C736 485 704 485 672 485C640 485 608 485 576 485C544 485 512 485 480 485.8C448 486.7 416 488.3 384 487.5C352 486.7 320 483.3 288 482.5C256 481.7 224 483.3 192 486C160 488.7 128 492.3 96 492.3C64 492.3 32 488.7 16 486.8L0 485Z" fill="#2176ae"></path></svg>